<svg width="116" height="116" viewBox="0 0 116 116" fill="none" xmlns="http://www.w3.org/2000/svg">
<g clip-path="url(#clip0)">
<path d="M1.49831 92.9818C1.05669 92.9818 0.615075 92.8128 0.278771 92.4765C-0.394722 91.803 -0.394722 90.7109 0.278771 90.0374L30.6886 59.6275C31.3621 58.954 32.4542 58.954 33.1277 59.6275C33.8012 60.301 33.8012 61.3931 33.1277 62.0657L2.71697 92.4765C2.38067 92.8128 1.93905 92.9818 1.49831 92.9818V92.9818Z" fill="#A0ECFF"/>
<path d="M5.2242 81.6634C4.78346 81.6634 4.34184 81.4953 4.00554 81.1589C3.33116 80.4855 3.33116 79.3933 4.00554 78.7198L7.89251 74.832C8.566 74.1594 9.6581 74.1594 10.3316 74.832C11.0051 75.5055 11.0051 76.5976 10.3316 77.2711L6.44374 81.1589C6.10744 81.4953 5.66582 81.6634 5.2242 81.6634Z" fill="#A0ECFF"/>
<path d="M12.8441 99.1671C12.4025 99.1671 11.9609 98.999 11.6246 98.6627C10.9511 97.9892 10.9511 96.8971 11.6246 96.2236L15.5116 92.3366C16.1851 91.6631 17.2772 91.6631 17.9507 92.3366C18.6241 93.0101 18.6241 94.1022 17.9507 94.7748L14.0637 98.6627C13.7265 98.999 13.2858 99.1671 12.8441 99.1671V99.1671Z" fill="#A0ECFF"/>
<path d="M79.5013 92.9818C79.0597 92.9818 78.6181 92.8128 78.2818 92.4765C77.6083 91.803 77.6083 90.7109 78.2818 90.0374L108.692 59.6275C109.365 58.954 110.457 58.954 111.131 59.6275C111.804 60.301 111.804 61.3931 111.131 62.0657L80.7209 92.4765C80.3837 92.8128 79.9421 92.9818 79.5013 92.9818Z" fill="#A0ECFF"/>
<path d="M57.6673 83.0812L20.8765 107.7C19.834 108.399 18.733 108.03 18.1277 107.271C17.5365 106.528 17.4152 105.411 18.2834 104.543L36.404 86.4221H24.3573C22.5297 86.4221 21.612 84.2105 22.9058 82.9175L42.2902 63.5349H59.6019L43.8142 79.3217H56.5256C58.555 79.3217 59.3532 81.9519 57.6673 83.0812Z" fill="#F6CB43"/>
<path d="M57.6673 83.0812L20.8765 107.7C19.834 108.399 18.733 108.031 18.1277 107.271L48.5614 82.9484H36.4899C34.6606 82.9484 33.7446 80.7368 35.0376 79.4429L50.9447 63.534H59.6019L43.8133 79.3217H56.5256C58.555 79.3217 59.3532 81.9519 57.6673 83.0812V83.0812Z" fill="#FAB03C"/>
<path d="M69.5016 89.2727C69.0609 89.2727 68.6193 89.1046 68.2821 88.7682C67.6086 88.0948 67.6086 87.0027 68.2821 86.3292L81.7431 72.8682C82.4166 72.1947 83.5087 72.1947 84.1822 72.8682C84.8557 73.5417 84.8557 74.6338 84.1822 75.3073L70.7212 88.7682C70.384 89.1046 69.9433 89.2727 69.5016 89.2727Z" fill="#A0ECFF"/>
<path d="M59.3957 99.3795C58.9549 99.3795 58.5133 99.2105 58.1761 98.8742C57.5026 98.2007 57.5026 97.1086 58.1761 96.4351L62.487 92.1251C63.1605 91.4516 64.2517 91.4516 64.9252 92.1251C65.5987 92.7986 65.5987 93.8898 64.9252 94.5642L60.6152 98.8742C60.2789 99.2105 59.8373 99.3795 59.3957 99.3795V99.3795Z" fill="#A0ECFF"/>
<path d="M64.1686 77.7765C63.727 77.7765 63.2862 77.6074 62.949 77.2711C62.2755 76.5976 62.2755 75.5055 62.949 74.832L76.241 61.5409C76.9145 60.8674 78.0066 60.8674 78.6801 61.5409C79.3527 62.2144 79.3527 63.3056 78.6801 63.9791L65.3881 77.2711C65.0509 77.6074 64.6093 77.7765 64.1686 77.7765Z" fill="#A0ECFF"/>
<path d="M100.545 36.0535C99.6035 20.4889 86.6841 8.15623 70.8822 8.15623C58.1381 8.15623 47.2693 16.178 43.046 27.4477C32.071 27.5804 23.2147 36.5128 23.2147 47.5188C23.2147 58.6071 32.2037 67.5962 43.292 67.5962H99.9946C108.708 67.5962 115.773 60.532 115.773 51.8182C115.773 43.2885 109.004 36.3438 100.545 36.0535V36.0535Z" fill="#6D6D6D"/>
<path d="M115.773 51.8173C115.773 60.5311 108.708 67.5971 99.9937 67.5971H98.7715C99.915 65.4128 100.563 62.926 100.563 60.2904C100.563 51.7607 93.7942 44.816 85.3353 44.5248C84.3937 28.9611 71.4743 16.6276 55.6715 16.6276C53.5404 16.6276 51.4633 16.8515 49.4614 17.278C54.8671 11.6556 62.4649 8.15712 70.8822 8.15712C86.6841 8.15712 99.6043 20.488 100.546 36.0544C109.005 36.3429 115.773 43.2885 115.773 51.8173Z" fill="#565656"/>
<path d="M92.6783 34.341C91.8995 34.341 91.1932 33.8091 91.0029 33.0188C90.7286 31.8772 90.3533 30.7514 89.8869 29.6735C89.5081 28.8 89.9099 27.7849 90.7843 27.4061C91.6578 27.0273 92.673 27.43 93.0517 28.3035C93.5969 29.5629 94.0359 30.878 94.3563 32.2126C94.5784 33.1392 94.0085 34.0693 93.0827 34.2923C92.9473 34.3251 92.8119 34.341 92.6783 34.341V34.341Z" fill="#6D6D6D"/>
<path d="M87.0637 24.0917C86.6106 24.0917 86.1575 23.9147 85.8194 23.5616C81.8705 19.4472 76.5657 17.1815 70.8822 17.1815C69.9299 17.1815 69.1582 16.4089 69.1582 15.4567C69.1582 14.5044 69.9299 13.7327 70.8822 13.7327C77.5136 13.7327 83.7025 16.3753 88.3072 21.1729C88.9674 21.8606 88.9444 22.9518 88.2576 23.6111C87.9231 23.9324 87.493 24.0917 87.0637 24.0917V24.0917Z" fill="#6D6D6D"/>
<path d="M18.8905 45.0461C19.564 33.918 28.8 25.1015 40.0972 25.1015C49.2083 25.1015 56.9787 30.8373 59.9984 38.8935C67.844 38.9882 74.1754 45.3744 74.1754 53.2431C74.1754 61.1701 67.7493 67.5962 59.8223 67.5962C56.5035 67.5962 22.6943 67.5962 19.2844 67.5962C13.0548 67.5962 8.00403 62.5463 8.00403 56.3158C8.00403 50.2181 12.8433 45.2541 18.8905 45.0461V45.0461Z" fill="#A09D9C"/>
<path d="M74.1762 53.2439C74.1762 61.1028 67.8564 67.4864 60.0196 67.5935C62.3693 65.0367 63.8021 61.6303 63.8021 57.8867C63.8021 50.0198 57.4717 43.6327 49.6234 43.5371C46.6037 35.4818 38.8342 29.7452 29.7222 29.7452C28.646 29.7452 27.5884 29.8266 26.5538 29.9806C30.2302 26.9335 34.9482 25.1024 40.0963 25.1024C49.2083 25.1024 56.9778 30.8364 59.9975 38.8944C67.8449 38.9891 74.1762 45.3735 74.1762 53.2439V53.2439Z" fill="#82807F"/>
<path d="M74.1886 99.3795C74.1851 99.3795 74.1824 99.3795 74.1798 99.3795H74.1559C73.2036 99.3742 72.4354 98.599 72.4398 97.6467C72.4443 96.6971 73.2151 95.9298 74.1638 95.9298H74.1727H74.1966C75.1488 95.9351 75.917 96.7104 75.9126 97.6626C75.9082 98.6122 75.1365 99.3795 74.1886 99.3795V99.3795Z" fill="#A0ECFF"/>
<path d="M94.7182 87.6903C94.7156 87.6903 94.7129 87.6903 94.7103 87.6903H94.6864C93.7341 87.6859 92.965 86.9097 92.9694 85.9575C92.9739 85.0079 93.7456 84.2414 94.6943 84.2414H94.7023H94.7262C95.6785 84.2459 96.4476 85.0211 96.4431 85.9734C96.4378 86.923 95.667 87.6903 94.7182 87.6903V87.6903Z" fill="#A0ECFF"/>
<path d="M8.66422 103.412H8.64032C7.68805 103.412 6.91544 102.639 6.91544 101.687C6.91544 100.734 7.68805 99.9628 8.64032 99.9628H8.66422C9.61649 99.9628 10.3882 100.734 10.3882 101.687C10.3882 102.64 9.61649 103.412 8.66422 103.412Z" fill="#A0ECFF"/>
</g>
<defs>
<clipPath id="clip0">
<rect width="116" height="116" fill="white"/>
</clipPath>
</defs>
</svg>
