<svg width="26" height="26" viewBox="0 0 26 26" fill="none" xmlns="http://www.w3.org/2000/svg">
<g clip-path="url(#clip0)">
<path d="M22.2297 6.67059C22.0043 2.94888 18.9152 0 15.1368 0C12.0895 0 9.49054 1.91818 8.48047 4.61296C5.85631 4.6447 3.73857 6.78049 3.73857 9.41219C3.73857 12.0637 5.88805 14.2132 8.53938 14.2132H22.0978C24.1816 14.2132 25.8707 12.5239 25.8707 10.4403C25.8707 8.40073 24.2522 6.74022 22.2297 6.67059V6.67059Z" fill="#6D6D6D"/>
<path d="M25.8709 10.4406C25.8709 12.5242 24.1814 14.2139 22.0978 14.2139H21.8054C22.0789 13.6916 22.2339 13.0969 22.2339 12.4667C22.2339 10.4273 20.6154 8.76659 18.5927 8.69676C18.3673 4.97525 15.278 2.02597 11.4996 2.02597C10.99 2.02597 10.4933 2.07973 10.0146 2.18149C11.3072 0.837372 13.124 0.000671387 15.1366 0.000671387C18.9152 0.000671387 22.0045 2.94916 22.2299 6.67146C24.2526 6.74049 25.8709 8.4012 25.8709 10.4406V10.4406Z" fill="#565656"/>
<path d="M20.3486 6.24113C20.1713 6.24113 20.0106 6.12033 19.9673 5.94041C19.9015 5.66627 19.8114 5.3961 19.6993 5.13723C19.6133 4.93827 19.7047 4.70738 19.9037 4.62129C20.1024 4.5352 20.3335 4.62684 20.4194 4.8256C20.5493 5.12573 20.6539 5.43914 20.7303 5.75692C20.781 5.96778 20.6513 6.17964 20.4404 6.23022C20.4097 6.23756 20.3789 6.24113 20.3486 6.24113Z" fill="#6D6D6D"/>
<path d="M19.0059 3.79056C18.9027 3.79056 18.8 3.75009 18.7228 3.66975C17.7748 2.6821 16.5013 2.13818 15.1368 2.13818C14.9202 2.13818 14.7444 1.96243 14.7444 1.74582C14.7444 1.52901 14.9202 1.35345 15.1368 1.35345C16.7169 1.35345 18.1916 1.98306 19.2889 3.12643C19.4391 3.28275 19.4339 3.5311 19.2776 3.68126C19.2015 3.75426 19.1037 3.79056 19.0059 3.79056Z" fill="#6D6D6D"/>
<path d="M2.7047 8.82088C2.86577 6.16022 5.07416 4.052 7.77548 4.052C9.95412 4.052 11.812 5.42329 12.534 7.34981C14.4102 7.37242 15.9243 8.89963 15.9243 10.7809C15.9243 12.6765 14.3876 14.2132 12.492 14.2132C11.6985 14.2132 3.6142 14.2132 2.79892 14.2132C1.3092 14.2132 0.101562 13.0056 0.101562 11.5159C0.101562 10.0577 1.25862 8.87067 2.7047 8.82088Z" fill="#A09D9C"/>
<path d="M15.9243 10.7811C15.9243 12.6604 14.4131 14.187 12.5394 14.2124C13.1012 13.601 13.4437 12.7864 13.4437 11.8913C13.4437 10.0101 11.93 8.48305 10.0535 8.46024C9.33145 6.53412 7.47357 5.16223 5.29474 5.16223C5.03726 5.16223 4.78455 5.18167 4.53719 5.21857C5.41594 4.48978 6.54443 4.05219 7.77528 4.05219C9.95412 4.05219 11.812 5.42308 12.534 7.34999C14.4106 7.3728 15.9243 8.89922 15.9243 10.7811V10.7811Z" fill="#82807F"/>
<path d="M5.59506 17.8066C5.59506 18.3985 5.11522 18.8783 4.5233 18.8783C3.93138 18.8783 3.45154 18.3985 3.45154 17.8066C3.45154 17.4182 3.91313 16.6557 4.23032 16.1774C4.36957 15.9679 4.67703 15.9679 4.81609 16.1774C5.13347 16.6557 5.59506 17.4182 5.59506 17.8066V17.8066Z" fill="#A0ECFF"/>
<path d="M5.59486 17.8066C5.59486 18.3983 5.11542 18.8783 4.5233 18.8783C4.37492 18.8783 4.23349 18.848 4.10495 18.7934C4.48918 18.6308 4.75856 18.2499 4.75856 17.8066C4.75856 17.467 4.40587 16.8415 4.10535 16.37C4.14819 16.3024 4.19025 16.2381 4.22992 16.178C4.36917 15.9681 4.67683 15.9675 4.81609 16.1774C5.13347 16.6557 5.59486 17.4182 5.59486 17.8066V17.8066Z" fill="#60DAFF"/>
<path d="M10.431 17.8066C10.431 18.3985 9.95114 18.8783 9.35922 18.8783C8.7673 18.8783 8.28746 18.3985 8.28746 17.8066C8.28746 17.4182 8.74905 16.6557 9.06624 16.1774C9.20549 15.9679 9.51295 15.9679 9.65201 16.1774C9.96939 16.6557 10.431 17.4182 10.431 17.8066V17.8066Z" fill="#A0ECFF"/>
<path d="M10.4308 17.8066C10.4308 18.3983 9.95134 18.8783 9.35922 18.8783C9.21085 18.8783 9.06961 18.848 8.94087 18.7934C9.3251 18.6308 9.59448 18.2499 9.59448 17.8066C9.59448 17.467 9.24179 16.8415 8.94127 16.37C8.98431 16.3024 9.02617 16.2381 9.06584 16.178C9.20509 15.9681 9.51276 15.9675 9.65201 16.1774C9.96939 16.6557 10.4308 17.4182 10.4308 17.8066V17.8066Z" fill="#60DAFF"/>
<path d="M15.2669 17.8066C15.2669 18.3985 14.7871 18.8783 14.1951 18.8783C13.6032 18.8783 13.1234 18.3985 13.1234 17.8066C13.1234 17.4182 13.585 16.6557 13.9024 16.1774C14.0414 15.9679 14.3489 15.9679 14.4879 16.1774C14.8055 16.6557 15.2669 17.4182 15.2669 17.8066V17.8066Z" fill="#A0ECFF"/>
<path d="M15.2669 17.8066C15.2669 18.3983 14.7873 18.8783 14.1951 18.8783C14.0468 18.8783 13.9055 18.848 13.7768 18.7934C14.161 18.6308 14.4304 18.2499 14.4304 17.8066C14.4304 17.467 14.0777 16.8415 13.7772 16.37C13.8202 16.3024 13.8621 16.2381 13.902 16.178C14.041 15.9681 14.3489 15.9675 14.4881 16.1774C14.8053 16.6557 15.2669 17.4182 15.2669 17.8066V17.8066Z" fill="#60DAFF"/>
<path d="M20.1028 17.8066C20.1028 18.3985 19.623 18.8783 19.0311 18.8783C18.4391 18.8783 17.9593 18.3985 17.9593 17.8066C17.9593 17.4182 18.4209 16.6557 18.7383 16.1774C18.8773 15.9679 19.185 15.9679 19.3239 16.1774C19.6414 16.6557 20.1028 17.4182 20.1028 17.8066V17.8066Z" fill="#A0ECFF"/>
<path d="M20.1028 17.8066C20.1028 18.3983 19.6232 18.8783 19.0311 18.8783C18.8827 18.8783 18.7415 18.848 18.6127 18.7934C18.9971 18.6308 19.2663 18.2499 19.2663 17.8066C19.2663 17.467 18.9136 16.8415 18.6131 16.37C18.6562 16.3024 18.6982 16.2381 18.7379 16.178C18.8769 15.9681 19.1848 15.9675 19.3241 16.1774C19.6412 16.6557 20.1028 17.4182 20.1028 17.8066V17.8066Z" fill="#60DAFF"/>
<path d="M5.59506 24.9282C5.59506 25.5201 5.11522 26 4.5233 26C3.93138 26 3.45154 25.5201 3.45154 24.9282C3.45154 24.5398 3.91313 23.7775 4.23032 23.2993C4.36957 23.0896 4.67703 23.0896 4.81609 23.2993C5.13347 23.7775 5.59506 24.5398 5.59506 24.9282V24.9282Z" fill="#A0ECFF"/>
<path d="M5.59486 24.9284C5.59486 25.5202 5.11542 26 4.5233 26C4.37492 26 4.23349 25.9699 4.10495 25.9153C4.48918 25.7524 4.75856 25.3718 4.75856 24.9282C4.75856 24.5886 4.40587 23.9632 4.10535 23.4917C4.14819 23.4242 4.19025 23.3598 4.22992 23.2999C4.36917 23.0898 4.67683 23.0892 4.81609 23.2991C5.13347 23.7775 5.59486 24.5398 5.59486 24.9284V24.9284Z" fill="#60DAFF"/>
<path d="M10.431 24.9282C10.431 25.5201 9.95114 26 9.35922 26C8.7673 26 8.28746 25.5201 8.28746 24.9282C8.28746 24.5398 8.74905 23.7775 9.06624 23.2993C9.20549 23.0896 9.51295 23.0896 9.65201 23.2993C9.96939 23.7775 10.431 24.5398 10.431 24.9282V24.9282Z" fill="#A0ECFF"/>
<path d="M10.4308 24.9284C10.4308 25.5202 9.95134 26 9.35922 26C9.21085 26 9.06961 25.9699 8.94087 25.9153C9.3251 25.7524 9.59448 25.3718 9.59448 24.9282C9.59448 24.5886 9.24179 23.9632 8.94127 23.4917C8.98431 23.4242 9.02617 23.3598 9.06584 23.2999C9.20509 23.0898 9.51276 23.0892 9.65201 23.2991C9.96939 23.7775 10.4308 24.5398 10.4308 24.9284V24.9284Z" fill="#60DAFF"/>
<path d="M15.2669 24.9282C15.2669 25.5201 14.7871 26 14.1951 26C13.6032 26 13.1234 25.5201 13.1234 24.9282C13.1234 24.5398 13.585 23.7775 13.9024 23.2993C14.0414 23.0896 14.3489 23.0896 14.4879 23.2993C14.8055 23.7775 15.2669 24.5398 15.2669 24.9282V24.9282Z" fill="#A0ECFF"/>
<path d="M15.2669 24.9284C15.2669 25.5202 14.7873 26 14.1951 26C14.0468 26 13.9055 25.9699 13.7768 25.9153C14.161 25.7524 14.4304 25.3718 14.4304 24.9282C14.4304 24.5886 14.0777 23.9632 13.7772 23.4917C13.8202 23.4242 13.8621 23.3598 13.902 23.2999C14.041 23.0898 14.3489 23.0892 14.4881 23.2991C14.8053 23.7775 15.2669 24.5398 15.2669 24.9284V24.9284Z" fill="#60DAFF"/>
<path d="M20.1028 24.9282C20.1028 25.5201 19.623 26 19.0311 26C18.4391 26 17.9593 25.5201 17.9593 24.9282C17.9593 24.5398 18.4209 23.7775 18.7383 23.2993C18.8773 23.0896 19.185 23.0896 19.3239 23.2993C19.6414 23.7775 20.1028 24.5398 20.1028 24.9282V24.9282Z" fill="#A0ECFF"/>
<path d="M20.1028 24.9284C20.1028 25.5202 19.6232 26 19.0311 26C18.8827 26 18.7415 25.9699 18.6127 25.9153C18.9971 25.7524 19.2663 25.3718 19.2663 24.9282C19.2663 24.5886 18.9136 23.9632 18.6131 23.4917C18.6562 23.4242 18.6982 23.3598 18.7379 23.2999C18.8769 23.0898 19.1848 23.0892 19.3241 23.2991C19.6412 23.7775 20.1028 24.5398 20.1028 24.9284V24.9284Z" fill="#60DAFF"/>
<path d="M8.01312 21.3261C8.01312 21.918 7.53328 22.3979 6.94136 22.3979C6.34944 22.3979 5.8696 21.918 5.8696 21.3261C5.8696 20.9377 6.33119 20.1752 6.64838 19.697C6.78743 19.4875 7.09509 19.4875 7.23415 19.697C7.55153 20.1752 8.01312 20.9377 8.01312 21.3261V21.3261Z" fill="#A0ECFF"/>
<path d="M8.01292 21.3261C8.01292 21.9178 7.53328 22.3979 6.94116 22.3979C6.79279 22.3979 6.65155 22.3675 6.52281 22.313C6.90724 22.1503 7.17642 21.7695 7.17642 21.3261C7.17642 20.9865 6.82393 20.3611 6.52321 19.8896C6.56625 19.8219 6.60831 19.7577 6.64798 19.6976C6.78703 19.4877 7.09489 19.4871 7.23415 19.697C7.55133 20.1752 8.01292 20.9375 8.01292 21.3261V21.3261Z" fill="#60DAFF"/>
<path d="M12.849 21.3261C12.849 21.918 12.3692 22.3979 11.7773 22.3979C11.1854 22.3979 10.7055 21.918 10.7055 21.3261C10.7055 20.9377 11.1671 20.1752 11.4843 19.697C11.6234 19.4875 11.931 19.4875 12.0701 19.697C12.3875 20.1752 12.849 20.9377 12.849 21.3261V21.3261Z" fill="#A0ECFF"/>
<path d="M12.8488 21.3261C12.8488 21.9178 12.3692 22.3979 11.7773 22.3979C11.6287 22.3979 11.4875 22.3675 11.3587 22.313C11.7432 22.1503 12.0123 21.7695 12.0123 21.3261C12.0123 20.9865 11.6599 20.3611 11.3591 19.8896C11.4022 19.8219 11.4442 19.7577 11.4839 19.6976C11.623 19.4877 11.9308 19.4871 12.0701 19.697C12.3873 20.1752 12.8488 20.9375 12.8488 21.3261V21.3261Z" fill="#60DAFF"/>
<path d="M17.685 21.3261C17.685 21.918 17.2051 22.3979 16.6132 22.3979C16.0213 22.3979 15.5414 21.918 15.5414 21.3261C15.5414 20.9377 16.003 20.1752 16.3202 19.697C16.4593 19.4875 16.7669 19.4875 16.906 19.697C17.2234 20.1752 17.685 20.9377 17.685 21.3261V21.3261Z" fill="#A0ECFF"/>
<path d="M17.6848 21.3261C17.6848 21.9178 17.2051 22.3979 16.6132 22.3979C16.4648 22.3979 16.3234 22.3675 16.1947 22.313C16.5791 22.1503 16.8483 21.7695 16.8483 21.3261C16.8483 20.9865 16.4958 20.3611 16.1951 19.8896C16.2381 19.8219 16.2802 19.7577 16.3198 19.6976C16.4589 19.4877 16.7667 19.4871 16.906 19.697C17.2232 20.1752 17.6848 20.9375 17.6848 21.3261V21.3261Z" fill="#60DAFF"/>
<path d="M22.5209 21.3261C22.5209 21.918 22.041 22.3979 21.4491 22.3979C20.8572 22.3979 20.3774 21.918 20.3774 21.3261C20.3774 20.9377 20.839 20.1752 21.1561 19.697C21.2954 19.4875 21.6029 19.4875 21.7419 19.697C22.0593 20.1752 22.5209 20.9377 22.5209 21.3261V21.3261Z" fill="#A0ECFF"/>
<path d="M22.5207 21.3261C22.5207 21.9178 22.041 22.3979 21.4491 22.3979C21.3008 22.3979 21.1593 22.3675 21.0308 22.313C21.415 22.1503 21.6844 21.7695 21.6844 21.3261C21.6844 20.9865 21.3317 20.3611 21.031 19.8896C21.074 19.8219 21.1161 19.7577 21.1557 19.6976C21.295 19.4877 21.6027 19.4871 21.7419 19.697C22.0593 20.1752 22.5207 20.9375 22.5207 21.3261V21.3261Z" fill="#60DAFF"/>
</g>
<defs>
<clipPath id="clip0">
<rect width="26" height="26" fill="white"/>
</clipPath>
</defs>
</svg>
