<svg width="26" height="26" viewBox="0 0 26 26" fill="none" xmlns="http://www.w3.org/2000/svg">
<g clip-path="url(#clip0)">
<path d="M10.3787 20.1174C10.2803 20.1174 10.182 20.0984 10.0891 20.0602C9.89747 19.9814 9.74625 19.828 9.67018 19.6354L8.7356 17.2675L6.3764 16.3506C6.18333 16.2756 6.02916 16.1252 5.94933 15.934C5.86956 15.7428 5.87108 15.5274 5.95355 15.3373L6.96704 13.0022L5.94715 10.6857C5.86367 10.4961 5.86103 10.2807 5.93979 10.0891C6.01855 9.89749 6.17196 9.74627 6.36462 9.6702L8.7325 8.73562L9.64936 6.37642C9.72441 6.18335 9.87483 6.02918 10.066 5.94935C10.2572 5.86958 10.4725 5.87105 10.6626 5.95357L12.9978 6.96706L15.3143 5.94717C15.5039 5.86369 15.7193 5.86099 15.9109 5.93981C16.1025 6.01857 16.2537 6.17198 16.3298 6.36464L17.2644 8.73252L19.6236 9.64938C19.8166 9.72443 19.9708 9.87485 20.0506 10.066C20.1304 10.2572 20.1289 10.4726 20.0464 10.6627L19.0329 12.9978L20.0528 15.3143C20.1363 15.5039 20.1389 15.7193 20.0602 15.9109C19.9814 16.1025 19.828 16.2537 19.6353 16.3298L17.2675 17.2644L16.3506 19.6236C16.2755 19.8166 16.1251 19.9708 15.9339 20.0506C15.7428 20.1304 15.5273 20.1289 15.3373 20.0464L13.0021 19.0329L10.6857 20.0528C10.5879 20.0958 10.4834 20.1174 10.3787 20.1174V20.1174ZM7.66635 15.2175L9.59786 15.9681C9.79571 16.045 9.95252 16.201 10.0305 16.3985L10.7966 18.3395L12.6931 17.5045C12.8874 17.419 13.1086 17.4183 13.3033 17.5028L15.2175 18.3336L15.9681 16.4022C16.0451 16.2043 16.201 16.0475 16.3985 15.9696L18.3395 15.2035L17.5045 13.3069C17.4189 13.1127 17.4184 12.8915 17.5029 12.6967L18.3337 10.7825L16.4022 10.0319C16.2044 9.95498 16.0475 9.79903 15.9696 9.60154L15.2035 7.66053L13.307 8.49553C13.1127 8.58109 12.8915 8.5817 12.6967 8.49715L10.7825 7.66637L10.0319 9.59783C9.95501 9.79568 9.79906 9.95249 9.60157 10.0304L7.66056 10.7965L8.49556 12.6931C8.58112 12.8873 8.58168 13.1085 8.49718 13.3033L7.66635 15.2175Z" fill="#4793FF"/>
<path d="M20.0528 15.3143L19.0329 12.9978L20.0464 10.6627C20.1289 10.4726 20.1304 10.2572 20.0506 10.066C19.9708 9.87485 19.8167 9.72443 19.6236 9.64938L17.2644 8.73252L16.3298 6.36464C16.2537 6.17198 16.1025 6.01857 15.9109 5.93981C15.7193 5.86099 15.5039 5.86369 15.3143 5.94717L13 6.96615V8.56007C13.1046 8.56007 13.2092 8.53864 13.307 8.49558L15.2035 7.66058L15.9696 9.60159C16.0475 9.79908 16.2043 9.95503 16.4022 10.032L18.3337 10.7826L17.5029 12.6968C17.4183 12.8915 17.4189 13.1127 17.5045 13.307L18.3395 15.2035L16.3985 15.9696C16.201 16.0476 16.045 16.2044 15.9681 16.4022L15.2175 18.3337L13.3033 17.5029C13.2066 17.4609 13.1033 17.44 13.0001 17.44V19.0339L13.0022 19.0329L15.3374 20.0464C15.5274 20.1289 15.7428 20.1304 15.934 20.0506C16.1252 19.9709 16.2756 19.8167 16.3507 19.6236L17.2676 17.2644L19.6354 16.3298C19.8281 16.2537 19.9815 16.1025 20.0603 15.9109C20.139 15.7193 20.1363 15.5039 20.0528 15.3143Z" fill="#525CDD"/>
<path d="M15.8254 1.55234C15.615 1.18798 15.1493 1.06316 14.7849 1.27355L13 2.304L11.2151 1.27355C10.8507 1.06311 10.3849 1.18803 10.1746 1.55234C9.96429 1.91664 10.0891 2.38251 10.4534 2.59284L12.5579 3.80789C12.6779 3.87715 12.8089 3.91006 12.9381 3.91006C12.9588 3.91006 12.9794 3.90889 13 3.90721C13.0206 3.90889 13.0412 3.91006 13.0619 3.91006C13.1911 3.91006 13.3221 3.87715 13.442 3.80789L15.5466 2.59284C15.9109 2.38251 16.0357 1.91664 15.8254 1.55234V1.55234Z" fill="#7DD5F4"/>
<path d="M15.5465 23.4072L13.442 22.1921C13.3028 22.1117 13.1488 22.0806 12.9998 22.0928C12.8509 22.0807 12.6971 22.1118 12.5579 22.1921L10.4534 23.4072C10.0891 23.6175 9.96426 24.0834 10.1746 24.4477C10.3157 24.6921 10.5717 24.8286 10.835 24.8286C10.9641 24.8286 11.0952 24.7957 11.2151 24.7265L13 23.696L14.7849 24.7265C14.9048 24.7958 15.0358 24.8287 15.165 24.8287C15.4283 24.8287 15.6843 24.6921 15.8254 24.4477C16.0357 24.0834 15.9109 23.6175 15.5465 23.4072V23.4072Z" fill="#7DD5F4"/>
<path d="M23.696 13L24.7264 11.2152C24.9368 10.8509 24.8119 10.385 24.4476 10.1747C24.0833 9.96421 23.6174 10.0891 23.4071 10.4534L22.1921 12.558C22.1118 12.6972 22.0806 12.8511 22.0928 13C22.0806 13.1489 22.1117 13.3029 22.1921 13.4421L23.4071 15.5466C23.5482 15.791 23.8042 15.9276 24.0675 15.9276C24.1967 15.9276 24.3277 15.8947 24.4476 15.8254C24.8119 15.615 24.9368 15.1492 24.7264 14.7849L23.696 13Z" fill="#4793FF"/>
<path d="M3.80788 12.558L2.59283 10.4534C2.3825 10.0891 1.91663 9.96426 1.55233 10.1746C1.18802 10.385 1.0632 10.8509 1.27354 11.2152L2.30399 13L1.27349 14.7849C1.06315 15.1492 1.18797 15.615 1.55228 15.8254C1.67222 15.8947 1.80319 15.9276 1.93242 15.9276C2.19567 15.9276 2.45171 15.791 2.59278 15.5466L3.80783 13.4421C3.88816 13.3029 3.91929 13.149 3.90715 13C3.91934 12.8511 3.88821 12.6972 3.80788 12.558V12.558Z" fill="#7DD5F4"/>
<path d="M23.0926 19.0969C22.9836 18.6906 22.5661 18.4492 22.1597 18.5583L19.8124 19.1873C19.6572 19.2289 19.5264 19.3157 19.4297 19.4295C19.3158 19.5263 19.2289 19.6571 19.1873 19.8124L18.5583 22.1597C18.4494 22.5661 18.6905 22.9837 19.0969 23.0926C19.163 23.1103 19.2292 23.1188 19.2945 23.1188C19.6309 23.1188 19.9386 22.8943 20.0298 22.554L20.5632 20.5632L22.5539 20.0298C22.9603 19.9209 23.2014 19.5032 23.0926 19.0969Z" fill="#4793FF"/>
<path d="M6.90305 2.90738C6.4966 2.79846 6.07902 3.03967 5.97015 3.44597L5.43674 5.43675L3.44602 5.97015C3.03966 6.07903 2.79856 6.4967 2.90743 6.90306C2.99858 7.24339 3.30637 7.46785 3.64269 7.46785C3.70795 7.46785 3.77427 7.45936 3.84033 7.44169L6.18764 6.81277C6.34319 6.77108 6.4742 6.68393 6.57099 6.56973C6.68454 6.47304 6.77127 6.34253 6.81276 6.1876L7.44174 3.84029C7.55056 3.43399 7.3094 3.01626 6.90305 2.90738V2.90738Z" fill="#7DD5F4"/>
<path d="M22.5539 5.97015L20.5632 5.43675L20.0298 3.44602C19.9209 3.03967 19.5033 2.79846 19.0969 2.90743C18.6905 3.01631 18.4494 3.43399 18.5583 3.84034L19.1873 6.1876C19.2288 6.34253 19.3156 6.47309 19.4291 6.56978C19.5258 6.68399 19.6569 6.77108 19.8124 6.81277L22.1597 7.44174C22.2258 7.45947 22.2921 7.4679 22.3574 7.4679C22.6937 7.4679 23.0015 7.24344 23.0926 6.90311C23.2015 6.49676 22.9603 6.07903 22.5539 5.97015V5.97015Z" fill="#4793FF"/>
<path d="M7.44169 22.1597L6.81272 19.8123C6.77113 19.6571 6.68419 19.5262 6.57029 19.4295C6.4736 19.3156 6.34279 19.2288 6.1876 19.1872L3.84029 18.5583C3.43373 18.4493 3.01621 18.6905 2.90738 19.0968C2.79851 19.5032 3.03962 19.9209 3.44597 20.0297L5.4367 20.5631L5.9701 22.5539C6.06131 22.8942 6.36904 23.1187 6.70537 23.1187C6.77062 23.1187 6.83694 23.1102 6.90301 23.0925C7.30941 22.9837 7.55057 22.566 7.44169 22.1597V22.1597Z" fill="#7DD5F4"/>
<path d="M25.2383 12.2383H14.8389L22.1924 4.88485C22.4898 4.58738 22.4898 4.10511 22.1924 3.80763C21.8949 3.51015 21.4126 3.51015 21.1151 3.80763L13.7617 11.1611V0.761719C13.7617 0.341047 13.4207 0 13 0C12.5793 0 12.2383 0.341047 12.2383 0.761719V11.1611L4.88485 3.80763C4.58743 3.51015 4.10511 3.51015 3.80763 3.80763C3.51015 4.10511 3.51015 4.58738 3.80763 4.88485L11.1611 12.2383H0.761719C0.341047 12.2383 0 12.5793 0 13C0 13.4207 0.341047 13.7617 0.761719 13.7617H11.1611L3.80763 21.1151C3.51015 21.4126 3.51015 21.8949 3.80763 22.1924C3.95637 22.3411 4.15132 22.4155 4.34621 22.4155C4.54111 22.4155 4.73611 22.3412 4.8848 22.1924L12.2383 14.8389V25.2383C12.2383 25.659 12.5793 26 13 26C13.4207 26 13.7617 25.659 13.7617 25.2383V14.8389L21.1151 22.1924C21.2639 22.3411 21.4588 22.4155 21.6537 22.4155C21.8486 22.4155 22.0436 22.3412 22.1923 22.1924C22.4898 21.8949 22.4898 21.4126 22.1923 21.1151L14.8389 13.7617H25.2383C25.659 13.7617 26 13.4207 26 13C26 12.5793 25.659 12.2383 25.2383 12.2383V12.2383Z" fill="#7DD5F4"/>
<path d="M25.2392 12.2383H14.8399L22.1933 4.88485C22.4908 4.58738 22.4908 4.10511 22.1933 3.80763C21.8959 3.51015 21.4136 3.51015 21.1161 3.80763L13.7627 11.1611V0.761719C13.7627 0.341047 13.4216 0 13.0009 0V26C13.4216 26 13.7627 25.659 13.7627 25.2383V14.8389L21.1161 22.1924C21.2648 22.3411 21.4598 22.4155 21.6547 22.4155C21.8496 22.4155 22.0446 22.3412 22.1933 22.1924C22.4907 21.8949 22.4907 21.4126 22.1933 21.1151L14.8399 13.7617H25.2392C25.6599 13.7617 26.0009 13.4207 26.0009 13C26.0009 12.5793 25.6599 12.2383 25.2392 12.2383Z" fill="#4793FF"/>
<path d="M15.8255 1.55232C15.6152 1.18797 15.1494 1.06315 14.785 1.27354L13.0001 2.30399V3.90725C13.0207 3.90893 13.0413 3.9101 13.062 3.9101C13.1912 3.9101 13.3222 3.87719 13.4422 3.80793L15.5467 2.59288C15.911 2.3825 16.0358 1.91663 15.8255 1.55232V1.55232Z" fill="#4793FF"/>
<path d="M15.5465 23.4072L13.442 22.1921C13.3028 22.1117 13.1488 22.0806 12.9999 22.0928V23.696L14.7848 24.7265C14.9047 24.7958 15.0357 24.8287 15.1649 24.8287C15.4282 24.8287 15.6842 24.6921 15.8253 24.4477C16.0357 24.0834 15.9109 23.6175 15.5465 23.4072Z" fill="#4793FF"/>
</g>
<defs>
<clipPath id="clip0">
<rect width="26" height="26" fill="white"/>
</clipPath>
</defs>
</svg>
