<svg width="26" height="26" viewBox="0 0 26 26" fill="none" xmlns="http://www.w3.org/2000/svg">
<g clip-path="url(#clip0)">
<path d="M13.7686 22.2247C18.4391 22.2247 22.2253 18.4385 22.2253 13.7681C22.2253 9.09758 18.4391 5.3114 13.7686 5.3114C9.09813 5.3114 5.31195 9.09758 5.31195 13.7681C5.31195 18.4385 9.09813 22.2247 13.7686 22.2247Z" fill="#FEDB41"/>
<path d="M20.5015 14.1451C20.4017 14.145 20.306 14.1053 20.2354 14.0347C20.1649 13.9642 20.1252 13.8685 20.1251 13.7687C20.1234 12.0834 19.4531 10.4676 18.2614 9.27588C17.0697 8.08419 15.4539 7.41395 13.7686 7.41223C13.6686 7.41223 13.5727 7.37251 13.502 7.30179C13.4313 7.23108 13.3915 7.13516 13.3915 7.03516C13.3915 6.93515 13.4313 6.83924 13.502 6.76852C13.5727 6.69781 13.6686 6.65808 13.7686 6.65808C15.6539 6.66008 17.4613 7.40987 18.7944 8.74293C20.1274 10.076 20.8772 11.8834 20.8792 13.7687C20.8792 13.8182 20.8693 13.8672 20.8503 13.913C20.8313 13.9587 20.8035 14.0002 20.7684 14.0352C20.7333 14.0701 20.6917 14.0978 20.6459 14.1167C20.6001 14.1356 20.551 14.1452 20.5015 14.1451V14.1451Z" fill="#FEA832"/>
<path d="M13.7687 3.5876C14.383 3.58832 14.996 3.64464 15.6002 3.75588C15.6084 3.63845 15.6138 3.51886 15.6138 3.39863C15.6135 1.71772 13.7687 0.354858 13.7687 0.354858C13.7687 0.354858 11.9236 1.71772 11.9236 3.39863C11.9236 3.51972 11.9292 3.63845 11.9374 3.75588C12.5415 3.64465 13.1544 3.58832 13.7687 3.5876V3.5876Z" fill="#FEA832"/>
<path d="M13.7686 23.9485C14.383 23.9477 14.996 23.8915 15.6002 23.7804C15.6084 23.8976 15.6137 24.0163 15.6137 24.1374C15.6137 25.8181 13.7689 27.1812 13.7689 27.1812C13.7689 27.1812 11.9238 25.8186 11.9238 24.1374C11.9238 24.0163 11.9294 23.8976 11.9376 23.7804C12.5416 23.8914 13.1545 23.9477 13.7686 23.9485V23.9485Z" fill="#FEA832"/>
<path d="M20.9674 6.56929C21.4011 7.00425 21.7946 7.47748 22.1432 7.98322C22.2322 7.90608 22.3199 7.82593 22.4055 7.74039C23.5942 6.55162 23.2531 4.28356 23.2531 4.28356C23.2531 4.28356 20.9851 3.94311 19.7963 5.13123C19.7101 5.21742 19.6306 5.3036 19.5535 5.39346C20.0592 5.74204 20.5324 6.13558 20.9674 6.56929V6.56929Z" fill="#FEA832"/>
<path d="M6.56991 20.9668C7.00477 21.4006 7.47802 21.7941 7.98385 22.1426C7.90671 22.2316 7.82655 22.3193 7.74101 22.4048C6.55225 23.5936 4.28418 23.2525 4.28418 23.2525C4.28418 23.2525 3.94308 20.9844 5.13185 19.7957C5.21804 19.7095 5.30423 19.63 5.39408 19.5528C5.74261 20.0586 6.13615 20.5318 6.56991 20.9668V20.9668Z" fill="#FEA832"/>
<path d="M23.9491 13.7687C23.9483 14.383 23.8921 14.996 23.781 15.6002C23.8982 15.6084 24.0169 15.614 24.138 15.614C25.8187 15.614 27.1818 13.7689 27.1818 13.7689C27.1818 13.7689 25.8189 11.924 24.138 11.924C24.0169 11.924 23.8982 11.9294 23.781 11.9376C23.892 12.5417 23.9483 13.1545 23.9491 13.7687V13.7687Z" fill="#FEA832"/>
<path d="M3.58821 13.7687C3.58896 14.383 3.64521 14.996 3.75627 15.6002C3.63906 15.6084 3.51925 15.614 3.39924 15.614C1.71833 15.6131 0.355469 13.7687 0.355469 13.7687C0.355469 13.7687 1.71833 11.9238 3.39924 11.9238C3.52033 11.9238 3.63906 11.9292 3.75627 11.9374C3.64523 12.5415 3.58898 13.1544 3.58821 13.7687Z" fill="#FEA832"/>
<path d="M20.9674 20.9668C20.5324 21.4005 20.0592 21.794 19.5535 22.1426C19.6306 22.2316 19.7108 22.3193 19.7963 22.4048C20.9851 23.5936 23.2531 23.2525 23.2531 23.2525C23.2531 23.2525 23.5942 20.9844 22.4055 19.7957C22.3193 19.7095 22.2331 19.63 22.1432 19.5528C21.7947 20.0586 21.4012 20.5318 20.9674 20.9668V20.9668Z" fill="#FEA832"/>
<path d="M6.56991 6.56929C6.1362 7.00425 5.74266 7.47748 5.39408 7.98322C5.30509 7.90608 5.21739 7.82593 5.13185 7.74039C3.94308 6.55162 4.28418 4.28356 4.28418 4.28356C4.28418 4.28356 6.55225 3.94311 7.74101 5.13123C7.8272 5.21742 7.90671 5.3036 7.98385 5.39346C7.47806 5.74199 7.00482 6.13553 6.56991 6.56929V6.56929Z" fill="#FEA832"/>
</g>
<defs>
<clipPath id="clip0">
<rect width="26" height="26" fill="white"/>
</clipPath>
</defs>
</svg>
